<?xml version="1.0" standalone="no"?>
<!DOCTYPE svg PUBLIC "-//W3C//DTD SVG 20010904//EN"
 "http://www.w3.org/TR/2001/REC-SVG-20010904/DTD/svg10.dtd">
<svg version="1.0" xmlns="http://www.w3.org/2000/svg"
 width="1024.000000pt" height="1024.000000pt" viewBox="0 0 1024.000000 1024.000000"
 preserveAspectRatio="xMidYMid meet">
<metadata>
Created by potrace 1.14, written by Peter Selinger 2001-2017
</metadata>
<g transform="translate(0.000000,1024.000000) scale(0.100000,-0.100000)"
fill="#000000" stroke="none">
<path d="M1039 10235 c-3 -2 -23 -7 -44 -11 -21 -3 -49 -10 -62 -15 -13 -5
-23 -6 -23 -4 0 10 -151 -50 -240 -96 -346 -177 -579 -505 -646 -903 -11 -67
-13 -780 -13 -4051 0 -2183 4 -3995 9 -4025 4 -30 11 -75 15 -99 19 -127 100
-318 189 -451 66 -97 210 -244 306 -312 163 -115 373 -194 575 -215 33 -4
1849 -7 4035 -7 3709 1 3981 2 4065 18 79 15 164 39 230 64 71 28 221 110 278
154 248 185 409 441 476 753 19 88 19 178 20 4096 1 3887 0 4009 -18 4110 -55
303 -203 550 -444 744 -141 113 -310 193 -496 235 -84 19 -161 19 -4147 20
-2233 0 -4063 -2 -4065 -5z"/>
</g>
</svg>
